<svg width="33" height="33" viewBox="0 0 33 33" fill="none" xmlns="http://www.w3.org/2000/svg">
<path d="M3.00667 22.495V31.3317C3.01149 31.7758 3.19133 32.2001 3.50712 32.5125C3.8229 32.8248 4.24916 33 4.69333 33H14.9967V22.495H3.00667ZM18.0033 33H28.3067C28.7508 33 29.1771 32.8248 29.4929 32.5125C29.8087 32.2001 29.9885 31.7758 29.9933 31.3317V22.495H18.0033V33ZM31.35 7.49833H27.9767C28.3222 6.79657 28.504 6.02554 28.5083 5.24333C28.5035 3.85103 27.947 2.51741 26.9608 1.53462C25.9745 0.551827 24.639 -8.45159e-06 23.2467 0C21.7922 0.0689777 20.3869 0.547993 19.193 1.38172C17.9992 2.21545 17.0656 3.36987 16.5 4.71167C15.9344 3.36987 15.0008 2.21545 13.807 1.38172C12.6131 0.547993 11.2078 0.0689777 9.75333 0C8.36102 -8.45159e-06 7.02547 0.551827 6.03924 1.53462C5.05301 2.51741 4.49652 3.85103 4.49167 5.24333C4.49602 6.02554 4.6778 6.79657 5.02333 7.49833H1.65C0.733334 7.49833 0 8.58 0 9.9V17.105C0 18.425 0.733334 19.5067 1.65 19.5067H14.9967V7.49833H18.0033V19.5067H31.35C32.2667 19.5067 33 18.425 33 17.105V9.9C33 8.58 32.2667 7.49833 31.35 7.49833ZM9.75333 7.49833C9.44135 7.52655 9.12691 7.48946 8.83006 7.38942C8.53321 7.28938 8.26046 7.12858 8.0292 6.91729C7.79793 6.706 7.61322 6.44884 7.48685 6.16221C7.36048 5.87557 7.29521 5.56575 7.29521 5.2525C7.29521 4.93925 7.36048 4.62943 7.48685 4.34279C7.61322 4.05616 7.79793 3.799 8.0292 3.58771C8.26046 3.37642 8.53321 3.21562 8.83006 3.11558C9.12691 3.01554 9.44135 2.97845 9.75333 3.00667C12.32 3.00667 13.7683 5.64667 14.4833 7.49833H9.75333ZM23.2467 7.49833H18.5167C19.2317 5.665 20.68 3.00667 23.2467 3.00667C23.5586 2.97845 23.8731 3.01554 24.1699 3.11558C24.4668 3.21562 24.7395 3.37642 24.9708 3.58771C25.2021 3.799 25.3868 4.05616 25.5131 4.34279C25.6395 4.62943 25.7048 4.93925 25.7048 5.2525C25.7048 5.56575 25.6395 5.87557 25.5131 6.16221C25.3868 6.44884 25.2021 6.706 24.9708 6.91729C24.7395 7.12858 24.4668 7.28938 24.1699 7.38942C23.8731 7.48946 23.5586 7.52655 23.2467 7.49833Z" fill="#4D6588"/>
</svg>
