<svg width="34" height="33" viewBox="0 0 34 33" fill="none" xmlns="http://www.w3.org/2000/svg">
<path d="M29.7187 7.33411H29.0038C29.2234 6.74733 29.3412 6.12733 29.3521 5.50086C29.3136 4.00967 28.6867 2.59428 27.6081 1.56382C26.5296 0.533359 25.0871 -0.0284448 23.5957 0.00110971C22.1301 0.0327615 20.6999 0.457871 19.455 1.23193C18.21 2.00598 17.1961 3.10051 16.5193 4.40091C15.8426 3.10051 14.8286 2.00598 13.5837 1.23193C12.3387 0.457871 10.9086 0.0327615 9.44298 0.00110971C7.95158 -0.0284448 6.50909 0.533359 5.43054 1.56382C4.35199 2.59428 3.72502 4.00967 3.68657 5.50086C3.6974 6.12733 3.8152 6.74733 4.03489 7.33411H3.31992C2.83751 7.37992 2.36897 7.5209 1.94138 7.74889C1.51379 7.97689 1.13564 8.28739 0.828786 8.66243C0.521934 9.03747 0.292468 9.46962 0.153656 9.93389C0.0148435 10.3982 -0.0305613 10.8853 0.0200662 11.3673V17.967C-0.0655751 18.8547 0.162657 19.7444 0.665068 20.4812C1.16748 21.2181 1.91228 21.7556 2.76994 22.0001V30.0114C2.82654 30.843 3.20451 31.6198 3.82383 32.1776C4.44316 32.7353 5.25523 33.0301 6.08813 32.9996H26.9505C27.7954 33.0295 28.6179 32.7246 29.2393 32.1513C29.8606 31.578 30.2306 30.7827 30.2687 29.9381V22.0001C31.1264 21.7556 31.8712 21.2181 32.3736 20.4812C32.876 19.7444 33.1042 18.8547 33.0186 17.967V11.3673C33.0692 10.8853 33.0238 10.3982 32.885 9.93389C32.7462 9.46962 32.5167 9.03747 32.2099 8.66243C31.903 8.28739 31.5249 7.97689 31.0973 7.74889C30.6697 7.5209 30.2011 7.37992 29.7187 7.33411ZM29.3521 11.3673V17.967C29.3741 18.0882 29.3741 18.2124 29.3521 18.3336H18.3526V11.0006H29.3521C29.3741 11.1218 29.3741 11.246 29.3521 11.3673ZM23.5957 3.66761C24.115 3.63735 24.6254 3.8127 25.0165 4.15575C25.4076 4.49881 25.6479 4.982 25.6856 5.50086C25.6479 6.01972 25.4076 6.50292 25.0165 6.84597C24.6254 7.18903 24.115 7.36438 23.5957 7.33411H19.0859C19.4066 6.35474 20.0024 5.48831 20.802 4.8382C21.6017 4.18809 22.5714 3.78173 23.5957 3.66761ZM7.35307 5.50086C7.39072 4.982 7.63108 4.49881 8.02216 4.15575C8.41324 3.8127 8.92363 3.63735 9.44298 3.66761C10.4639 3.78506 11.4298 4.19292 12.2259 4.84281C13.022 5.4927 13.615 6.35733 13.9344 7.33411H9.44298C8.92363 7.36438 8.41324 7.18903 8.02216 6.84597C7.63108 6.50292 7.39072 6.01972 7.35307 5.50086ZM3.68657 11.3673C3.66457 11.246 3.66457 11.1218 3.68657 11.0006H14.6861V18.3336H3.68657C3.66457 18.2124 3.66457 18.0882 3.68657 17.967V11.3673ZM6.43644 22.0001H14.6861V29.3331H6.43644V22.0001ZM18.3526 29.3331V22.0001H26.6022V29.3331H18.3526Z" fill="#98C1FF"/>
</svg>
