<svg width="31" height="31" viewBox="0 0 31 31" fill="none" xmlns="http://www.w3.org/2000/svg">
<path d="M17.4375 4.84375C17.4375 3.77207 16.5717 2.90625 15.5 2.90625C14.4283 2.90625 13.5625 3.77207 13.5625 4.84375V13.5625H4.84375C3.77207 13.5625 2.90625 14.4283 2.90625 15.5C2.90625 16.5717 3.77207 17.4375 4.84375 17.4375H13.5625V26.1562C13.5625 27.2279 14.4283 28.0938 15.5 28.0938C16.5717 28.0938 17.4375 27.2279 17.4375 26.1562V17.4375H26.1562C27.2279 17.4375 28.0938 16.5717 28.0938 15.5C28.0938 14.4283 27.2279 13.5625 26.1562 13.5625H17.4375V4.84375Z" fill="#829CC3"/>
</svg>
