<svg width="31" height="8" viewBox="0 0 31 8" fill="none" xmlns="http://www.w3.org/2000/svg">
<path fill-rule="evenodd" clip-rule="evenodd" d="M3.525 7.05C2.59011 7.05 1.69351 6.67862 1.03245 6.01755C0.371383 5.35649 0 4.45989 0 3.525C0 2.59011 0.371383 1.69351 1.03245 1.03245C1.69351 0.371382 2.59011 0 3.525 0C4.45989 0 5.35649 0.371382 6.01755 1.03245C6.67862 1.69351 7.05 2.59011 7.05 3.525C7.05 4.45989 6.67862 5.35649 6.01755 6.01755C5.35649 6.67862 4.45989 7.05 3.525 7.05ZM15.275 7.05C14.3401 7.05 13.4435 6.67862 12.7824 6.01755C12.1214 5.35649 11.75 4.45989 11.75 3.525C11.75 2.59011 12.1214 1.69351 12.7824 1.03245C13.4435 0.371382 14.3401 0 15.275 0C16.2099 0 17.1065 0.371382 17.7676 1.03245C18.4286 1.69351 18.8 2.59011 18.8 3.525C18.8 4.45989 18.4286 5.35649 17.7676 6.01755C17.1065 6.67862 16.2099 7.05 15.275 7.05ZM27.025 7.05C26.0901 7.05 25.1935 6.67862 24.5324 6.01755C23.8714 5.35649 23.5 4.45989 23.5 3.525C23.5 2.59011 23.8714 1.69351 24.5324 1.03245C25.1935 0.371382 26.0901 0 27.025 0C27.9599 0 28.8565 0.371382 29.5176 1.03245C30.1786 1.69351 30.55 2.59011 30.55 3.525C30.55 4.45989 30.1786 5.35649 29.5176 6.01755C28.8565 6.67862 27.9599 7.05 27.025 7.05Z" fill="#829CC3"/>
</svg>
