<svg width="167" height="167" viewBox="0 0 167 167" fill="none" xmlns="http://www.w3.org/2000/svg">
<path d="M115.972 64.9444C119.663 64.9444 123.203 63.4782 125.813 60.8683C128.423 58.2584 129.889 54.7187 129.889 51.0278C129.889 47.3368 128.423 43.7971 125.813 41.1872C123.203 38.5773 119.663 37.1111 115.972 37.1111C112.281 37.1111 108.742 38.5773 106.132 41.1872C103.522 43.7971 102.056 47.3368 102.056 51.0278C102.056 54.7187 103.522 58.2584 106.132 60.8683C108.742 63.4782 112.281 64.9444 115.972 64.9444Z" fill="#1E222A"/>
<path d="M0 18.5556C0 13.6343 1.95495 8.91464 5.4348 5.4348C8.91464 1.95495 13.6343 0 18.5556 0H148.444C153.366 0 158.085 1.95495 161.565 5.4348C165.045 8.91464 167 13.6343 167 18.5556V148.444C167 153.366 165.045 158.085 161.565 161.565C158.085 165.045 153.366 167 148.444 167H18.5556C13.6343 167 8.91464 165.045 5.4348 161.565C1.95495 158.085 0 153.366 0 148.444V18.5556ZM148.444 18.5556H18.5556V92.0356L49.8681 66.9856C51.5136 65.6681 53.5587 64.9502 55.6667 64.9502C57.7746 64.9502 59.8197 65.6681 61.4653 66.9856L101.36 98.9011L114.052 86.2184C115.792 84.4791 118.151 83.502 120.611 83.502C123.071 83.502 125.431 84.4791 127.171 86.2184L148.444 107.492V18.5556ZM18.5556 148.444H148.444V133.73L120.611 105.897L108.615 117.893C107.001 119.508 104.847 120.471 102.567 120.598C100.287 120.725 98.0402 120.006 96.2569 118.579L55.6667 86.0978L18.5556 115.787V148.444Z" fill="#1E222A"/>
</svg>
