<svg width="147" height="98" viewBox="0 0 147 98" fill="none" xmlns="http://www.w3.org/2000/svg">
<path d="M28.4023 46.4C29.709 46.4 30.3623 47.38 30.3623 49.34C30.3623 53.0267 27.469 54.87 21.6823 54.87C20.5623 54.87 18.9523 54.66 16.8523 54.24C17.459 57.1333 17.949 60.3533 18.3223 63.9C18.7423 67.4 18.9523 70.2933 18.9523 72.58C18.9523 77.62 18.1356 81.47 16.5023 84.13C14.869 86.79 12.7223 88.12 10.0623 88.12C6.7023 88.12 4.29897 85.74 2.8523 80.98C1.4523 76.22 0.752305 69.0333 0.752305 59.42C0.752305 50.46 1.70897 41.3833 3.6223 32.19C5.5823 22.95 8.24231 15.32 11.6023 9.3C15.009 3.23333 18.7423 0.199996 22.8023 0.199996C24.9956 0.199996 26.699 1.18 27.9123 3.14C29.1723 5.1 29.8023 7.73666 29.8023 11.05C29.8023 22.0167 23.2456 33.9633 10.1323 46.89C9.66564 51.4633 9.43231 55.4767 9.43231 58.93C9.43231 63.7367 9.59564 68.66 9.92231 73.7C10.249 78.7867 10.7856 81.33 11.5323 81.33C12.9323 81.33 13.6323 78.9033 13.6323 74.05C13.6323 70.41 13.3756 66.8867 12.8623 63.48C12.3956 60.0733 11.7423 56.48 10.9023 52.7C10.8556 52.0933 11.0423 51.3233 11.4623 50.39C11.929 49.4567 12.489 48.64 13.1423 47.94C13.7956 47.24 14.379 46.89 14.8923 46.89C15.8256 46.89 16.9456 46.9367 18.2523 47.03C18.6723 47.0767 19.1623 47.1 19.7223 47.1C21.589 47.1 23.6656 46.9367 25.9523 46.61C26.3256 46.5633 26.7223 46.5167 27.1423 46.47C27.5623 46.4233 27.9823 46.4 28.4023 46.4ZM21.3323 7.13C20.4923 7.13 19.4423 8.55333 18.1823 11.4C16.969 14.2467 15.7556 18.0267 14.5423 22.74C13.329 27.4067 12.279 32.3533 11.3923 37.58C15.1256 33.3333 17.9956 28.9233 20.0023 24.35C22.009 19.73 23.0356 15.4133 23.0823 11.4C23.0823 8.55333 22.499 7.13 21.3323 7.13ZM34.0335 66.35C31.1401 66.35 28.8301 65.3 27.1035 63.2C25.3768 61.1 24.5135 58.3467 24.5135 54.94C24.5135 51.2067 25.3768 47.6833 27.1035 44.37C28.8301 41.01 31.1168 38.3267 33.9635 36.32C36.8568 34.2667 39.9135 33.24 43.1335 33.24C44.1601 33.24 44.8368 33.45 45.1635 33.87C45.5368 34.2433 45.8401 34.9433 46.0735 35.97C47.0535 35.7833 48.0801 35.69 49.1535 35.69C51.4401 35.69 52.5835 36.5067 52.5835 38.14C52.5835 39.12 52.2335 41.4533 51.5335 45.14C50.4601 50.5067 49.9235 54.24 49.9235 56.34C49.9235 57.04 50.0868 57.6 50.4135 58.02C50.7868 58.44 51.2535 58.65 51.8135 58.65C52.7001 58.65 53.7735 58.09 55.0335 56.97C56.2935 55.8033 57.9968 53.9367 60.1435 51.37C60.7035 50.7167 61.3335 50.39 62.0335 50.39C62.6401 50.39 63.1068 50.67 63.4335 51.23C63.8068 51.79 63.9935 52.56 63.9935 53.54C63.9935 55.4067 63.5501 56.8533 62.6635 57.88C60.7501 60.26 58.7201 62.2667 56.5735 63.9C54.4268 65.5333 52.3501 66.35 50.3435 66.35C48.8035 66.35 47.3801 65.8367 46.0735 64.81C44.8135 63.7367 43.8568 62.29 43.2035 60.47C40.7768 64.39 37.7201 66.35 34.0335 66.35ZM36.5535 59.28C37.5801 59.28 38.5601 58.6733 39.4935 57.46C40.4268 56.2467 41.1035 54.6367 41.5235 52.63L44.1135 39.75C42.1535 39.7967 40.3335 40.5433 38.6535 41.99C37.0201 43.39 35.7135 45.2567 34.7335 47.59C33.7535 49.9233 33.2635 52.3967 33.2635 55.01C33.2635 56.4567 33.5435 57.53 34.1035 58.23C34.7101 58.93 35.5268 59.28 36.5535 59.28ZM63.2743 66.35C61.501 66.35 60.241 65.4167 59.4943 63.55C58.7943 61.6833 58.4443 58.6967 58.4443 54.59C58.4443 48.5233 59.3077 42.76 61.0343 37.3C61.4543 35.9467 62.131 34.9667 63.0643 34.36C64.0443 33.7067 65.3977 33.38 67.1243 33.38C68.0577 33.38 68.711 33.4967 69.0843 33.73C69.4577 33.9633 69.6443 34.4067 69.6443 35.06C69.6443 35.8067 69.2943 37.4867 68.5943 40.1C68.1277 41.9667 67.7543 43.6 67.4743 45C67.1943 46.4 66.961 48.1267 66.7743 50.18C68.3143 46.1667 70.041 42.9 71.9543 40.38C73.8677 37.86 75.7343 36.0633 77.5543 34.99C79.421 33.9167 81.1243 33.38 82.6643 33.38C85.6977 33.38 87.2143 34.8967 87.2143 37.93C87.2143 39.75 86.701 43.04 85.6743 47.8C84.7877 51.86 84.3443 54.5433 84.3443 55.85C84.3443 57.7167 85.021 58.65 86.3743 58.65C87.3077 58.65 88.4043 58.09 89.6643 56.97C90.971 55.8033 92.6977 53.9367 94.8443 51.37C95.4043 50.7167 96.0343 50.39 96.7343 50.39C97.341 50.39 97.8077 50.67 98.1343 51.23C98.5077 51.79 98.6943 52.56 98.6943 53.54C98.6943 55.4067 98.251 56.8533 97.3643 57.88C95.3577 60.3533 93.1877 62.3833 90.8543 63.97C88.5677 65.5567 85.9543 66.35 83.0143 66.35C80.6343 66.35 78.8377 65.6733 77.6243 64.32C76.411 62.92 75.8043 60.9133 75.8043 58.3C75.8043 56.9933 76.131 54.66 76.7843 51.3C77.391 48.36 77.6943 46.33 77.6943 45.21C77.6943 44.4633 77.4377 44.09 76.9243 44.09C76.3177 44.09 75.4543 44.8833 74.3343 46.47C73.261 48.01 72.141 50.0633 70.9743 52.63C69.8543 55.1967 68.9443 57.9033 68.2443 60.75C67.731 62.9433 67.1243 64.4367 66.4243 65.23C65.771 65.9767 64.721 66.35 63.2743 66.35ZM106.401 66.35C101.828 66.35 98.2576 65.0667 95.6909 62.5C93.1709 59.8867 91.9109 56.4567 91.9109 52.21C91.9109 48.43 92.6576 45.1167 94.1509 42.27C95.6442 39.4233 97.5809 37.23 99.9609 35.69C102.341 34.15 104.838 33.38 107.451 33.38C110.018 33.38 112.001 34.15 113.401 35.69C114.848 37.1833 115.571 39.12 115.571 41.5C115.571 43.46 115.128 45.1167 114.241 46.47C113.401 47.8233 112.281 48.5 110.881 48.5C109.994 48.5 109.271 48.29 108.711 47.87C108.198 47.45 107.941 46.8667 107.941 46.12C107.941 45.7933 107.988 45.42 108.081 45C108.174 44.58 108.244 44.2767 108.291 44.09C108.524 43.39 108.641 42.7367 108.641 42.13C108.641 41.5233 108.478 41.0567 108.151 40.73C107.871 40.4033 107.451 40.24 106.891 40.24C105.818 40.24 104.814 40.73 103.881 41.71C102.948 42.6433 102.201 43.9267 101.641 45.56C101.081 47.1933 100.801 48.99 100.801 50.95C100.801 56.3633 103.158 59.07 107.871 59.07C109.784 59.07 111.838 58.44 114.031 57.18C116.271 55.8733 118.464 53.9367 120.611 51.37C121.171 50.7167 121.801 50.39 122.501 50.39C123.108 50.39 123.574 50.67 123.901 51.23C124.274 51.79 124.461 52.56 124.461 53.54C124.461 55.3133 124.018 56.76 123.131 57.88C120.938 60.5867 118.301 62.6867 115.221 64.18C112.188 65.6267 109.248 66.35 106.401 66.35ZM143.302 33.38C144.376 33.38 145.122 33.52 145.542 33.8C145.962 34.08 146.172 34.5467 146.172 35.2C146.172 36.32 145.566 40.31 144.352 47.17C143.279 53.75 142.649 57.6467 142.462 58.86C140.736 70.8533 138.356 80.35 135.322 87.35C132.289 94.35 128.252 97.85 123.212 97.85C120.832 97.85 118.896 97.1033 117.402 95.61C115.909 94.1633 115.162 92.25 115.162 89.87C115.162 87.6767 115.652 85.4367 116.632 83.15C117.659 80.8633 119.526 78.2267 122.232 75.24C124.986 72.3 128.859 68.9167 133.852 65.09L134.062 63.48C134.389 61.7533 134.762 59.28 135.182 56.06C134.249 59.42 132.942 61.9867 131.262 63.76C129.582 65.4867 127.809 66.35 125.942 66.35C123.842 66.35 122.116 65.3933 120.762 63.48C119.456 61.52 118.802 59.0933 118.802 56.2C118.802 52.7 119.036 49.5033 119.502 46.61C119.969 43.67 120.739 40.5667 121.812 37.3C122.279 35.9 122.932 34.8967 123.772 34.29C124.612 33.6833 125.942 33.38 127.762 33.38C128.789 33.38 129.489 33.5433 129.862 33.87C130.282 34.1967 130.492 34.6867 130.492 35.34C130.492 35.7133 130.236 36.9733 129.722 39.12C129.256 40.8467 128.882 42.41 128.602 43.81C128.229 45.7233 127.902 47.5667 127.622 49.34C127.342 51.0667 127.202 52.49 127.202 53.61C127.202 55.3833 127.692 56.27 128.672 56.27C129.372 56.27 130.236 55.57 131.262 54.17C132.336 52.77 133.456 50.6467 134.622 47.8C135.836 44.9533 137.002 41.4533 138.122 37.3C138.496 35.9 139.056 34.8967 139.802 34.29C140.596 33.6833 141.762 33.38 143.302 33.38ZM123.982 91.06C125.149 91.06 126.456 89.7067 127.902 87C129.349 84.2933 130.796 79.79 132.242 73.49C128.649 76.5233 126.036 79.2767 124.402 81.75C122.816 84.27 122.022 86.4633 122.022 88.33C122.022 89.1233 122.162 89.7767 122.442 90.29C122.769 90.8033 123.282 91.06 123.982 91.06Z" fill="white"/>
</svg>
