<svg width="39" height="39" viewBox="0 0 39 39" fill="none" xmlns="http://www.w3.org/2000/svg">
<path fill-rule="evenodd" clip-rule="evenodd" d="M21.5403 3.9624C20.9407 1.92696 18.0593 1.92696 17.4597 3.9624L17.2305 4.74002C17.0378 5.39317 16.7015 5.99495 16.2461 6.50127C15.7906 7.00759 15.2277 7.40562 14.5986 7.66621C13.9694 7.92681 13.2899 8.04336 12.6099 8.00733C11.9299 7.9713 11.2665 7.78361 10.6684 7.458L9.95659 7.06797C8.09422 6.05635 6.05635 8.09179 7.07041 9.95659L7.458 10.6684C7.78361 11.2665 7.9713 11.9299 8.00733 12.6099C8.04336 13.2899 7.92681 13.9694 7.66621 14.5986C7.40562 15.2277 7.00759 15.7906 6.50127 16.2461C5.99495 16.7015 5.39317 17.0378 4.74002 17.2305L3.9624 17.4597C1.92696 18.0593 1.92696 20.9407 3.9624 21.5403L4.74002 21.7695C5.39351 21.9621 5.99562 22.2985 6.50219 22.7541C7.00876 23.2097 7.40696 23.7728 7.66759 24.4023C7.92821 25.0318 8.04466 25.7116 8.00839 26.3919C7.97213 27.0723 7.78407 27.7359 7.458 28.3341L7.06797 29.0434C6.05635 30.9058 8.09179 32.9437 9.95659 31.9296L10.6684 31.542C11.2667 31.2164 11.9302 31.0288 12.6104 30.993C13.2905 30.9571 13.9701 31.0738 14.5993 31.3347C15.2285 31.5955 15.7914 31.9938 16.2467 32.5004C16.7019 33.007 17.0381 33.6091 17.2305 34.2624L17.4597 35.0376C18.0593 37.073 20.9407 37.073 21.5403 35.0376L21.7695 34.26C21.9621 33.6065 22.2985 33.0044 22.7541 32.4978C23.2097 31.9912 23.7728 31.593 24.4023 31.3324C25.0318 31.0718 25.7116 30.9553 26.3919 30.9916C27.0723 31.0279 27.7359 31.2159 28.3341 31.542L29.0434 31.932C30.9058 32.9437 32.9437 30.9082 31.9296 29.0434L31.542 28.3341C31.216 27.7357 31.028 27.0719 30.9919 26.3915C30.9558 25.711 31.0724 25.0311 31.3333 24.4016C31.5942 23.7721 31.9926 23.2089 32.4995 22.7535C33.0063 22.298 33.6087 21.9618 34.2624 21.7695L35.0376 21.5403C37.073 20.9407 37.073 18.0593 35.0376 17.4597L34.26 17.2305C33.6068 17.0378 33.0051 16.7015 32.4987 16.2461C31.9924 15.7906 31.5944 15.2277 31.3338 14.5986C31.0732 13.9694 30.9566 13.2899 30.9927 12.6099C31.0287 11.9299 31.2164 11.2665 31.542 10.6684L31.932 9.95659C32.9437 8.09422 30.9082 6.05635 29.0434 7.07041L28.3341 7.458C27.7358 7.78452 27.0719 7.97295 26.3913 8.00946C25.7107 8.04596 25.0305 7.92962 24.4008 7.66896C23.771 7.4083 23.2075 7.00994 22.7518 6.50312C22.296 5.99629 21.9596 5.39385 21.767 4.74002L21.5403 3.9624ZM15.122 3.27255C16.4066 -1.09085 22.5934 -1.09085 23.878 3.27255L24.1072 4.05016C24.1969 4.35475 24.3536 4.6354 24.5659 4.87155C24.7782 5.10769 25.0406 5.29334 25.3339 5.41488C25.6273 5.53643 25.9441 5.59079 26.2612 5.57398C26.5783 5.55717 26.8876 5.46962 27.1664 5.31774L27.8782 4.92771C31.876 2.75333 36.2491 7.12404 34.0699 11.1218L33.6823 11.8336C33.5304 12.1124 33.4428 12.4217 33.426 12.7388C33.4092 13.0559 33.4636 13.3727 33.5851 13.6661C33.7067 13.9594 33.8923 14.2218 34.1285 14.4341C34.3646 14.6464 34.6453 14.8031 34.9498 14.8928L35.7275 15.122C40.0909 16.4066 40.0909 22.5934 35.7275 23.878L34.9498 24.1072C34.6453 24.1969 34.3646 24.3536 34.1285 24.5659C33.8923 24.7782 33.7067 25.0406 33.5851 25.3339C33.4636 25.6273 33.4092 25.9441 33.426 26.2612C33.4428 26.5783 33.5304 26.8876 33.6823 27.1664L34.0723 27.8782C36.2491 31.876 31.8735 36.2491 27.8782 34.0699L27.1664 33.6823C26.8876 33.5304 26.5783 33.4428 26.2612 33.426C25.9441 33.4092 25.6273 33.4636 25.3339 33.5851C25.0406 33.7067 24.7782 33.8923 24.5659 34.1285C24.3536 34.3646 24.1969 34.6453 24.1072 34.9498L23.878 35.7275C22.5934 40.0909 16.4066 40.0909 15.122 35.7275L14.8928 34.9498C14.8031 34.6453 14.6464 34.3646 14.4341 34.1285C14.2218 33.8923 13.9594 33.7067 13.6661 33.5851C13.3727 33.4636 13.0559 33.4092 12.7388 33.426C12.4217 33.4428 12.1124 33.5304 11.8336 33.6823L11.1218 34.0723C7.12404 36.2491 2.75333 31.8735 4.93015 27.8782L5.31774 27.1664C5.46962 26.8876 5.55717 26.5783 5.57398 26.2612C5.59079 25.9441 5.53643 25.6273 5.41488 25.3339C5.29334 25.0406 5.10769 24.7782 4.87155 24.5659C4.6354 24.3536 4.35475 24.1969 4.05016 24.1072L3.27255 23.878C-1.09085 22.5934 -1.09085 16.4066 3.27255 15.122L4.05016 14.8928C4.35475 14.8031 4.6354 14.6464 4.87155 14.4341C5.10769 14.2218 5.29334 13.9594 5.41488 13.6661C5.53643 13.3727 5.59079 13.0559 5.57398 12.7388C5.55717 12.4217 5.46962 12.1124 5.31774 11.8336L4.92771 11.1218C2.75333 7.12404 7.12648 2.75333 11.1218 4.93015L11.8336 5.31774C12.1124 5.46962 12.4217 5.55717 12.7388 5.57398C13.0559 5.59079 13.3727 5.53643 13.6661 5.41488C13.9594 5.29334 14.2218 5.10769 14.4341 4.87155C14.6464 4.6354 14.8031 4.35475 14.8928 4.05016L15.122 3.27255Z" fill="#4D6588"/>
<path fill-rule="evenodd" clip-rule="evenodd" d="M19.4996 14.0246C18.0475 14.0246 16.655 14.6015 15.6282 15.6282C14.6015 16.655 14.0246 18.0476 14.0246 19.4996C14.0246 20.9517 14.6015 22.3442 15.6282 23.371C16.655 24.3978 18.0475 24.9746 19.4996 24.9746C20.9516 24.9746 22.3442 24.3978 23.371 23.371C24.3977 22.3442 24.9746 20.9517 24.9746 19.4996C24.9746 18.0476 24.3977 16.655 23.371 15.6282C22.3442 14.6015 20.9516 14.0246 19.4996 14.0246ZM11.587 19.4996C11.587 18.4605 11.7916 17.4316 12.1893 16.4716C12.5869 15.5116 13.1698 14.6393 13.9045 13.9045C14.6393 13.1698 15.5116 12.587 16.4716 12.1893C17.4316 11.7917 18.4605 11.587 19.4996 11.587C20.5387 11.587 21.5676 11.7917 22.5276 12.1893C23.4876 12.587 24.3599 13.1698 25.0947 13.9045C25.8294 14.6393 26.4123 15.5116 26.8099 16.4716C27.2075 17.4316 27.4122 18.4605 27.4122 19.4996C27.4122 21.5982 26.5786 23.6108 25.0947 25.0947C23.6108 26.5786 21.5982 27.4122 19.4996 27.4122C17.401 27.4122 15.3884 26.5786 13.9045 25.0947C12.4206 23.6108 11.587 21.5982 11.587 19.4996Z" fill="#4D6588"/>
</svg>
