<svg width="36" height="37" viewBox="0 0 36 37" fill="none" xmlns="http://www.w3.org/2000/svg">
<path d="M32.3495 36.2494H32.3492L23.5255 36.2483C22.7459 36.2473 21.9985 35.9371 21.4472 35.3858C20.896 34.8345 20.5859 34.087 20.585 33.3074V24.4846H14.7033V33.3074C14.7024 34.087 14.3923 34.8345 13.841 35.3858C13.2898 35.9371 12.5424 36.2473 11.7628 36.2483L2.94123 36.2494C2.555 36.2495 2.17254 36.1735 1.8157 36.0257C1.45885 35.8779 1.13461 35.6613 0.861487 35.3882C0.588363 35.1151 0.371707 34.7909 0.223892 34.4341C0.0760773 34.0773 -1.45155e-06 33.6948 0 33.3086V16.314C0.000357451 15.9043 0.0861507 15.4991 0.251901 15.1245C0.417652 14.7498 0.659717 14.4138 0.962638 14.1379L15.6657 0.76913C16.2058 0.274457 16.9116 4.968e-05 17.644 6.74506e-09C18.3764 -4.96665e-05 19.0822 0.274262 19.6224 0.768862L34.3279 14.138C34.6308 14.4139 34.8728 14.7499 35.0385 15.1246C35.2042 15.4993 35.29 15.9044 35.2904 16.314V33.3086C35.2904 33.6948 35.2143 34.0772 35.0665 34.434C34.9188 34.7908 34.7021 35.115 34.429 35.3881C34.156 35.6612 33.8318 35.8778 33.475 36.0256C33.1182 36.1734 32.7357 36.2494 32.3495 36.2494ZM14.7033 21.5438H20.585C21.3647 21.5447 22.1122 21.8548 22.6635 22.4061C23.2148 22.9574 23.525 23.7049 23.5259 24.4846V33.3093L32.3495 33.3086V16.314L17.6441 2.94498L2.94087 16.314V33.3086L11.7624 33.3074V24.4846C11.7633 23.7049 12.0734 22.9574 12.6247 22.4061C13.1761 21.8548 13.9236 21.5447 14.7033 21.5438Z" fill="#4D6588"/>
</svg>
