<svg width="108" height="108" viewBox="0 0 108 108" fill="none" xmlns="http://www.w3.org/2000/svg">
<circle cx="54.5" cy="54.5" r="53.5" fill="#D5E5FF"/>
<path d="M54.14 23.57C50.3612 23.57 46.6672 24.6906 43.5251 26.79C40.3831 28.8894 37.9342 31.8734 36.4881 35.3646C35.042 38.8558 34.6637 42.6975 35.4009 46.4037C36.1381 50.1099 37.9578 53.5144 40.6299 56.1864C43.3019 58.8585 46.7063 60.6782 50.4126 61.4154C54.1188 62.1526 57.9604 61.7742 61.4517 60.3281C64.9429 58.882 67.9269 56.4331 70.0263 53.2911C72.1257 50.1491 73.2463 46.4551 73.2463 42.6763C73.2463 37.609 71.2333 32.7492 67.6502 29.1661C64.0671 25.583 59.2073 23.57 54.14 23.57ZM54.14 54.14C51.8727 54.14 49.6563 53.4677 47.7711 52.208C45.8859 50.9484 44.4166 49.158 43.5489 47.0632C42.6812 44.9685 42.4542 42.6635 42.8965 40.4398C43.3389 38.216 44.4307 36.1734 46.0339 34.5702C47.6371 32.9669 49.6798 31.8751 51.9035 31.4328C54.1273 30.9904 56.4323 31.2175 58.527 32.0851C60.6217 32.9528 62.4121 34.4221 63.6718 36.3073C64.9314 38.1925 65.6038 40.4089 65.6038 42.6763C65.6003 45.7156 64.3914 48.6294 62.2423 50.7786C60.0932 52.9277 57.1793 54.1366 54.14 54.14Z" fill="#829CC4"/>
<path d="M54.14 0.642487C43.5592 0.642487 33.216 3.78006 24.4184 9.65844C15.6208 15.5368 8.7639 23.892 4.7148 33.6674C0.665697 43.4428 -0.393732 54.1993 1.67048 64.5768C3.73469 74.9543 8.82984 84.4867 16.3116 91.9684C23.7934 99.4502 33.3257 104.545 43.7032 106.61C54.0807 108.674 64.8373 107.614 74.6127 103.565C84.388 99.5161 92.7432 92.6592 98.6216 83.8616C104.5 75.064 107.638 64.7208 107.638 54.14C107.622 39.9565 101.98 26.3585 91.9508 16.3292C81.9216 6.29993 68.3236 0.658467 54.14 0.642487ZM31.2125 93.7912V88.5312C31.2159 85.4919 32.4247 82.578 34.5739 80.4288C36.723 78.2797 39.6369 77.0708 42.6763 77.0675H65.6038C68.6431 77.0708 71.5571 78.2797 73.7062 80.4288C75.8553 82.578 77.0642 85.4919 77.0675 88.5312V93.7912C70.1097 97.854 62.1972 99.995 54.14 99.995C46.0829 99.995 38.1704 97.854 31.2125 93.7912ZM84.6814 88.2477C84.6054 83.2352 82.5631 78.4531 78.9945 74.9323C75.4259 71.4114 70.6169 69.4335 65.6038 69.425H42.6763C37.6632 69.4335 32.8541 71.4114 29.2856 74.9323C25.717 78.4531 23.6747 83.2352 23.5987 88.2477C16.6691 82.0601 11.7824 73.9137 9.58554 64.8871C7.38872 55.8605 7.98545 46.3796 11.2967 37.6997C14.608 29.0198 20.4776 21.5503 28.1283 16.2804C35.779 11.0106 44.85 8.18879 54.14 8.18879C63.4301 8.18879 72.5011 11.0106 80.1518 16.2804C87.8025 21.5503 93.6721 29.0198 96.9834 37.6997C100.295 46.3796 100.891 55.8605 98.6945 64.8871C96.4977 73.9137 91.611 82.0601 84.6814 88.2477Z" fill="#829CC4"/>
</svg>
