<svg width="33" height="33" viewBox="0 0 33 33" fill="none" xmlns="http://www.w3.org/2000/svg">
<path d="M13.4499 25.555C13.1356 25.5556 12.8311 25.4462 12.5891 25.2456C12.4529 25.1327 12.3403 24.9941 12.2578 24.8376C12.1753 24.6811 12.1245 24.5099 12.1082 24.3337C12.092 24.1575 12.1106 23.9799 12.1632 23.811C12.2157 23.642 12.301 23.4851 12.4143 23.3492L18.4399 16.14L12.6295 8.91734C12.5177 8.77977 12.4343 8.62146 12.384 8.45154C12.3336 8.28161 12.3173 8.10341 12.3361 7.92718C12.3548 7.75094 12.4082 7.58015 12.4932 7.42462C12.5782 7.26909 12.693 7.13189 12.8312 7.02089C12.9704 6.89845 13.1333 6.80609 13.3099 6.74962C13.4864 6.69314 13.6727 6.67377 13.8571 6.69271C14.0415 6.71166 14.22 6.76851 14.3814 6.8597C14.5428 6.9509 14.6835 7.07446 14.7949 7.22264L21.2913 15.2926C21.4891 15.5333 21.5972 15.8352 21.5972 16.1467C21.5972 16.4583 21.4891 16.7601 21.2913 17.0008L14.5663 25.0708C14.4313 25.2336 14.2599 25.3622 14.066 25.4464C13.872 25.5305 13.6609 25.5677 13.4499 25.555Z" fill="#829CC3"/>
</svg>
