<svg width="194" height="149" viewBox="0 0 194 149" fill="none" xmlns="http://www.w3.org/2000/svg">
<path d="M109.125 74.3745H84.875V133.009C84.875 137.25 82.9588 141.317 79.548 144.316C76.1372 147.315 71.5111 149 66.6875 149H47.1299C44.2485 149 41.4085 148.398 38.8437 147.243C36.2789 146.089 34.0628 144.415 32.3779 142.36C30.693 140.305 29.5875 137.927 29.1525 135.423C28.7175 132.919 28.9655 130.359 29.876 127.956L44.8382 88.5107L35.8658 92.807C19.7031 100.557 0 90.2698 0 74.0867V21.3585C0 5.17539 19.7031 -5.11226 35.8658 2.62747L66.1783 17.1688C69.6096 18.8105 72.459 21.1133 74.593 23.8637C77.5151 22.1047 81.0556 21.0706 84.875 21.0706H109.125C112.944 21.0706 116.485 22.1047 119.407 23.8744C121.541 21.1346 124.39 18.8212 127.822 17.1794L158.134 2.63813C174.297 -5.11226 194 5.17539 194 21.3585V74.0867C194 90.2698 174.297 100.557 158.134 92.807L149.162 88.5001L164.124 127.945C165.037 130.349 165.287 132.91 164.853 135.415C164.419 137.921 163.314 140.3 161.629 142.357C159.944 144.413 157.727 146.088 155.16 147.243C152.594 148.398 149.753 149 146.87 149H127.312C122.489 149 117.863 147.315 114.452 144.316C111.041 141.317 109.125 137.25 109.125 133.009V74.3745ZM181.875 21.3585C181.875 19.5087 181.328 17.6907 180.288 16.0831C179.247 14.4755 177.749 13.1336 175.939 12.1893C174.13 11.2451 172.073 10.7309 169.97 10.6975C167.866 10.664 165.789 11.1123 163.942 11.9983L133.63 26.5396C131.719 27.4561 130.125 28.8078 129.013 30.4529C127.902 32.0979 127.314 33.9757 127.312 35.8891V42.3922H151.562C153.17 42.3922 154.712 42.9538 155.849 43.9534C156.986 44.9531 157.625 46.3089 157.625 47.7226C157.625 49.1363 156.986 50.4921 155.849 51.4917C154.712 52.4914 153.17 53.053 151.562 53.053H127.312V59.556C127.314 61.4695 127.902 63.3472 129.013 64.9923C130.125 66.6373 131.719 67.989 133.63 68.9056L163.942 83.4469C165.789 84.3329 167.866 84.7812 169.97 84.7477C172.073 84.7142 174.13 84.2001 175.939 83.2558C177.749 82.3116 179.247 80.9697 180.288 79.3621C181.328 77.7545 181.875 75.9364 181.875 74.0867V21.3585ZM121.25 73.6496V133.009C121.25 134.423 121.889 135.778 123.026 136.778C124.163 137.778 125.705 138.339 127.312 138.339H146.87C147.83 138.339 148.776 138.137 149.631 137.752C150.485 137.367 151.223 136.809 151.785 136.124C152.346 135.439 152.714 134.647 152.859 133.813C153.003 132.978 152.921 132.125 152.617 131.324L133.69 81.3893C133.644 81.2665 133.604 81.142 133.569 81.0162L127.822 78.2657C125.342 77.0759 123.118 75.5136 121.25 73.6496ZM60.3097 81.3893L41.3947 131.324C41.0917 132.124 41.0088 132.976 41.153 133.81C41.2971 134.644 41.6642 135.435 42.224 136.12C42.7838 136.805 43.5204 137.363 44.3732 137.749C45.226 138.135 46.1708 138.337 47.1299 138.339H66.6875C68.2954 138.339 69.8374 137.778 70.9743 136.778C72.1113 135.778 72.75 134.423 72.75 133.009V73.6496C70.907 75.4939 68.7002 77.061 66.1783 78.2657L60.4431 81.0162C60.4079 81.1418 60.3553 81.2663 60.3097 81.3893ZM115.188 37.0618C115.188 35.6481 114.549 34.2923 113.412 33.2926C112.275 32.293 110.733 31.7314 109.125 31.7314H84.875C83.2671 31.7314 81.7251 32.293 80.5882 33.2926C79.4512 34.2923 78.8125 35.6481 78.8125 37.0618V58.3834C78.8125 59.7971 79.4512 61.1529 80.5882 62.1525C81.7251 63.1522 83.2671 63.7137 84.875 63.7137H109.125C110.733 63.7137 112.275 63.1522 113.412 62.1525C114.549 61.1529 115.188 59.7971 115.188 58.3834V37.0618ZM66.6875 53.053H42.4375C40.8296 53.053 39.2876 52.4914 38.1507 51.4917C37.0137 50.4921 36.375 49.1363 36.375 47.7226C36.375 46.3089 37.0137 44.9531 38.1507 43.9534C39.2876 42.9538 40.8296 42.3922 42.4375 42.3922H66.6875V35.8891C66.6857 33.9757 66.0983 32.0979 64.9868 30.4529C63.8753 28.8078 62.2807 27.4561 60.3704 26.5396L30.0579 11.9983C28.2111 11.1123 26.1339 10.664 24.0304 10.6975C21.927 10.7309 19.8696 11.2451 18.0605 12.1893C16.2515 13.1336 14.753 14.4755 13.7123 16.0831C12.6716 17.6907 12.1246 19.5087 12.125 21.3585V74.0867C12.1246 75.9364 12.6716 77.7545 13.7123 79.3621C14.753 80.9697 16.2515 82.3116 18.0605 83.2558C19.8696 84.2001 21.927 84.7142 24.0304 84.7477C26.1339 84.7812 28.2111 84.3329 30.0579 83.4469L60.3704 68.9056C62.2807 67.989 63.8753 66.6373 64.9868 64.9923C66.0983 63.3472 66.6857 61.4695 66.6875 59.556V53.053Z" fill="white"/>
</svg>
