<svg width="28" height="28" viewBox="0 0 28 28" fill="none" xmlns="http://www.w3.org/2000/svg">
<ellipse cx="14.5" cy="15" rx="9.5" ry="11" fill="white"/>
<path d="M14 0C6.286 0 0 6.286 0 14C0 21.714 6.286 28 14 28C21.714 28 28 21.714 28 14C28 6.286 21.714 0 14 0ZM19.6 15.05H15.05V19.6C15.05 20.174 14.574 20.65 14 20.65C13.426 20.65 12.95 20.174 12.95 19.6V15.05H8.4C7.826 15.05 7.35 14.574 7.35 14C7.35 13.426 7.826 12.95 8.4 12.95H12.95V8.4C12.95 7.826 13.426 7.35 14 7.35C14.574 7.35 15.05 7.826 15.05 8.4V12.95H19.6C20.174 12.95 20.65 13.426 20.65 14C20.65 14.574 20.174 15.05 19.6 15.05Z" fill="#4D6588"/>
</svg>
