<svg width="37" height="37" viewBox="0 0 37 37" fill="none" xmlns="http://www.w3.org/2000/svg">
<path d="M34.4142 23.1588L29.4553 19.9142L31.3646 16.4139C31.8251 15.5399 32.0663 14.5671 32.0676 13.5792V8.03025C32.0714 6.47001 31.6195 4.94261 30.7674 3.63562C29.9153 2.32862 28.7 1.29891 27.2709 0.672952C25.8417 0.0469892 24.2608 -0.147984 22.7224 0.111974C21.184 0.371933 19.7549 1.07551 18.6108 2.1363L20.2869 3.94563C21.0797 3.21261 22.0691 2.72686 23.1339 2.54792C24.1987 2.36899 25.2926 2.50465 26.2815 2.93828C27.2703 3.37191 28.1111 4.08465 28.7009 4.98913C29.2906 5.89361 29.6035 6.95051 29.6014 8.03025V13.5792C29.6012 14.1544 29.4634 14.7213 29.1995 15.2324L26.2003 20.7311L33.0639 25.2222C33.5169 25.5187 33.8887 25.9237 34.1454 26.4005C34.4021 26.8772 34.5356 27.4106 34.5338 27.952V32.0756H28.9849V34.5418H37V27.9519C37.0025 27.0008 36.7672 26.0641 36.3156 25.2271C35.864 24.39 35.2104 23.679 34.4142 23.1588Z" fill="#4D6588"/>
<path d="M23.3163 25.625L18.3575 22.3804L20.2667 18.8801C20.7272 18.0061 20.9685 17.0333 20.9697 16.0454V10.4964C20.9682 8.36953 20.123 6.3301 18.6196 4.82556C17.1162 3.32103 15.0775 2.47425 12.9506 2.47101C8.53324 2.47101 4.93954 6.07126 4.93954 10.4964V16.0454C4.93483 17.0328 5.17345 18.0062 5.63431 18.8795L7.55393 22.3988L2.62395 25.625C1.82861 26.1444 1.17556 26.8542 0.724075 27.6899C0.272586 28.5257 0.0369444 29.461 0.0385342 30.4109L0 37.0079H25.9021V30.4181C25.9046 29.467 25.6694 28.5303 25.2178 27.6932C24.7662 26.8562 24.1126 26.1452 23.3163 25.625ZM23.4359 34.5418H2.48052L2.50441 30.4181C2.50255 29.8767 2.63604 29.3433 2.89275 28.8666C3.14947 28.3898 3.52126 27.9848 3.97434 27.6883L10.8089 23.2161L7.79931 17.6986C7.53841 17.1867 7.40348 16.6199 7.40573 16.0454V10.4964C7.40573 9.02478 7.99034 7.61339 9.03097 6.57276C10.0716 5.53214 11.483 4.94752 12.9546 4.94752C14.4263 4.94752 15.8377 5.53214 16.8783 6.57276C17.9189 7.61339 18.5036 9.02478 18.5036 10.4964V16.0454C18.5033 16.6206 18.3655 17.1875 18.1017 17.6986L15.1025 23.1973L21.966 27.6884C22.4191 27.9849 22.7909 28.3899 23.0476 28.8667C23.3043 29.3434 23.4378 29.8768 23.4359 30.4182V34.5418Z" fill="#4D6588"/>
</svg>
