<svg width="28" height="28" viewBox="0 0 28 28" fill="none" xmlns="http://www.w3.org/2000/svg">
<path fill-rule="evenodd" clip-rule="evenodd" d="M10.6373 24.0282C10.9049 24.5299 11.1729 24.9819 11.4291 25.3825C8.70714 24.7704 6.3452 23.2069 4.71081 21.0596C5.78948 20.4521 7.17103 19.8224 8.83192 19.3617C9.30396 21.2131 9.96993 22.7769 10.6373 24.0282ZM12.6961 22.9301C12.1164 21.8433 11.5354 20.4859 11.1168 18.8776C12.0179 18.7438 12.9799 18.6667 14.0002 18.6667C15.0203 18.6667 15.9822 18.7438 16.8832 18.8774C16.4646 20.4859 15.8836 21.8433 15.3039 22.9301C14.8391 23.8017 14.376 24.4975 14 25.0066C13.624 24.4975 13.1609 23.8017 12.6961 22.9301ZM10.5 14C10.5 14.9086 10.5611 15.771 10.6689 16.5852C11.7085 16.4257 12.82 16.3333 14.0002 16.3333C15.1802 16.3333 16.2916 16.4256 17.3311 16.5852C17.4389 15.7708 17.5 14.9086 17.5 14C17.5 13.0914 17.4389 12.2292 17.3311 11.4148C16.2916 11.5743 15.1802 11.6667 14.0002 11.6667C12.82 11.6667 11.7085 11.5743 10.6689 11.4148C10.5611 12.229 10.5 13.0914 10.5 14ZM8.37959 10.9337C8.24409 11.8966 8.16667 12.9195 8.16667 14C8.16667 15.0805 8.24409 16.1034 8.37959 17.0663C6.39859 17.5982 4.75816 18.3481 3.48948 19.0697C2.74864 17.5367 2.33333 15.8169 2.33333 14C2.33333 12.1831 2.74864 10.4634 3.48947 8.93026C4.75801 9.65179 6.39847 10.4018 8.37959 10.9337ZM11.1168 9.12248C12.0179 9.25621 12.9799 9.33333 14.0002 9.33333C15.0203 9.33333 15.9822 9.25622 16.8832 9.12251C16.4646 7.51419 15.8836 6.15678 15.3039 5.06987C14.8391 4.19835 14.376 3.50243 14 2.99339C13.624 3.50243 13.1609 4.19835 12.6961 5.06984C12.1164 6.15675 11.5354 7.51416 11.1168 9.12248ZM19.6204 10.9338C19.7559 11.8967 19.8333 12.9197 19.8333 14C19.8333 15.0805 19.7559 16.1033 19.6204 17.0662C21.6014 17.5982 23.2419 18.3481 24.5106 19.0697C25.2513 17.5366 25.6667 15.8167 25.6667 14C25.6667 12.1833 25.2513 10.4634 24.5106 8.93034C23.242 9.65186 21.6015 10.4018 19.6204 10.9338ZM23.2892 6.94055C22.2104 7.54804 20.8289 8.17763 19.1682 8.63844C18.6961 6.78695 18.0301 5.22307 17.3628 3.97183C17.0951 3.47009 16.8271 3.01817 16.5709 2.61753C19.2929 3.22969 21.6549 4.79323 23.2892 6.94055ZM8.8319 8.63839C7.17113 8.17757 5.78962 7.54798 4.71083 6.94047C6.3452 4.7932 8.70715 3.22969 11.429 2.61753C11.1729 3.01817 10.9049 3.47007 10.6372 3.9718C9.96993 5.22304 9.30397 6.78691 8.8319 8.63839ZM19.1682 19.3615C18.6961 21.2131 18.0301 22.7769 17.3628 24.0282C17.0951 24.5299 16.8271 24.9819 16.5709 25.3825C19.2929 24.7704 21.6549 23.2067 23.2893 21.0594C22.2105 20.452 20.829 19.8224 19.1682 19.3615ZM14 28C21.732 28 28 21.732 28 14C28 6.26802 21.732 0 14 0C6.26802 0 0 6.26802 0 14C0 21.732 6.26802 28 14 28Z" fill="#829CC3"/>
</svg>
